<svg width="28" height="28" viewBox="0 0 28 28" fill="none" version="1.1" xmlns="http://www.w3.org/2000/svg" xmlns:xlink="http://www.w3.org/1999/xlink">
    <path fill-rule="evenodd" clip-rule="evenodd" d="M24.3438 5.7644V13.7373C24.3438 14.0713 24.0488 14.3672 23.7188 14.3672L23.582 14.3486C23.4688 14.3203 23.3535 14.2607 23.2754 14.1816C22.7227 13.5898 22.0605 13.1084 21.2871 12.7744C20.4395 12.4043 19.5566 12.2197 18.6348 12.2197C16.0938 12.2197 13.7363 13.7373 12.7051 16.0703C12.0801 17.5518 12.0059 19.2178 12.4844 20.7363C12.4844 20.7657 12.4905 20.8004 12.4973 20.8391L12.5 20.8545L12.5017 20.8641C12.511 20.9164 12.5215 20.9742 12.5215 21.0322V21.1436C12.5215 21.6982 12.0801 22.1797 11.4902 22.1797H3.27734C2.87305 22.1797 2.4668 22.1064 2.0625 21.958C1.80469 21.8838 1.58398 21.7725 1.40039 21.625L1.32031 21.5605L1.30566 21.549C1.16357 21.4359 1.04272 21.3396 0.919922 21.2178C0.332031 20.625 0 19.8105 0 18.959V3.55469C0 1.5918 1.58398 0 3.53516 0H13.1445C10.9387 1.19312 8.09473 3.27795 6.15039 6.73853L6.07666 6.84961C6.03979 6.92358 6.00293 6.99768 5.92944 7.10876C5.92065 7.12622 5.91211 7.14575 5.90283 7.16638C5.87305 7.23315 5.83838 7.3114 5.78198 7.36792L5.70825 7.479C5.68994 7.53467 5.66211 7.59033 5.63452 7.64612C5.60693 7.70154 5.57935 7.75696 5.56104 7.81238L5.52417 7.84937C4.60352 9.81189 4.05103 12.0336 3.86694 14.4034V14.4404C3.86694 14.5144 3.85767 14.5978 3.84863 14.6812C3.83936 14.7644 3.83008 14.8477 3.83008 14.9218V15.0328V15.4772V15.6254V16.0326V16.2178V16.6251V16.8102V17.2175V17.4027C3.83008 17.4954 3.83936 17.5972 3.84863 17.699C3.85767 17.8008 3.86694 17.9026 3.86694 17.9951C3.94067 18.9949 4.75073 19.7725 5.74512 19.7725C6.55542 19.7725 7.25513 19.2911 7.51294 18.5135C7.51294 18.4951 7.52222 18.4673 7.53125 18.4395C7.54053 18.4117 7.5498 18.384 7.5498 18.3655L7.6604 17.9211L7.91821 17.0695C9.13354 13.4777 11.4167 8.92322 15.7258 7.6272L15.7627 8.55286C15.7996 9.55261 16.6465 10.3673 17.6409 10.3673C18.0461 10.3673 18.4512 10.2191 18.7827 9.99695L24.3438 5.7644Z" transform="translate(0 4.03809)" fill="white"/>
    <path d="M4.55 9.1C7.0629 9.1 9.1 7.06289 9.1 4.55C9.1 2.0371 7.0629 0 4.55 0C2.0371 0 0 2.0371 0 4.55C0 7.06289 2.0371 9.1 4.55 9.1Z" transform="translate(14.1113 18.1794)" fill="white"/>
    <path d="M0.0554405 20.9591C-0.791626 8.14729 8.30513 4.03713 11.141 3.07439C11.3988 3.00033 11.5461 2.74113 11.5461 2.48194L11.4724 0.630513C11.4356 0.149143 11.9512 -0.147085 12.3563 0.0750858L20.6797 4.96284C21.048 5.18501 21.0848 5.70341 20.7533 5.96261L12.8719 11.9612C12.5036 12.2574 11.9512 11.9982 11.9144 11.5169L11.8407 9.73951C11.8407 9.36923 11.4724 9.11003 11.141 9.18409C4.99053 10.369 2.30201 16.923 1.19714 21.0702C1.04982 21.7367 0.0922695 21.6627 0.0554405 20.9591Z" transform="translate(5.13672 1)" fill="white"/>
</svg>
